<svg width="600" height="600" viewBox="0 0 600 600" fill="none" xmlns="http://www.w3.org/2000/svg">
<g clip-path="url(#clip0)">
<path d="M511.23 205.657C517.649 220.525 522.708 235.86 536.868 235.86C543.668 235.86 550.189 232.678 554.997 227.014C559.805 221.35 562.506 213.667 562.506 205.657C562.506 197.647 559.805 189.965 554.997 184.301C550.189 178.637 543.668 175.455 536.868 175.455C522.478 175.243 499.281 177.984 511.23 205.657Z" fill="#2F2E41"/>
<path d="M531.381 568.88L520.425 571.755L505.793 523.339L521.964 519.094L531.381 568.88Z" fill="#A0616A"/>
<path d="M536.543 580.658L501.213 589.932L501.114 589.406C500.711 587.279 500.668 585.079 500.988 582.932C501.307 580.785 501.982 578.734 502.974 576.894C503.967 575.055 505.257 573.463 506.771 572.211C508.285 570.959 509.994 570.071 511.8 569.597L511.801 569.596L533.379 563.932L536.543 580.658Z" fill="#2F2E41"/>
<path d="M563.931 586.185H552.705L547.364 535.177L563.933 535.178L563.931 586.185Z" fill="#A0616A"/>
<path d="M566.793 599.004L530.597 599.002V598.463C530.597 596.284 530.962 594.125 531.67 592.112C532.378 590.098 533.415 588.269 534.724 586.727C536.032 585.186 537.585 583.964 539.294 583.13C541.004 582.296 542.836 581.867 544.686 581.867H544.687L566.794 581.868L566.793 599.004Z" fill="#2F2E41"/>
<path d="M564.005 559.455H549.678C548.683 559.451 547.722 559.025 546.972 558.254C546.222 557.483 545.734 556.42 545.596 555.258L532.608 436.912C532.565 436.542 532.415 436.201 532.182 435.947C531.95 435.693 531.65 435.541 531.334 435.518C531.017 435.494 530.704 435.601 530.446 435.818C530.189 436.036 530.003 436.353 529.921 436.713L522.224 470.506L529.162 547.47C529.28 548.656 529.022 549.852 528.437 550.828C527.853 551.804 526.984 552.491 525.996 552.759L514.631 555.848C513.621 556.117 512.562 555.931 511.663 555.326C510.764 554.72 510.091 553.74 509.775 552.579L491.473 477.757C489.999 472.274 489.492 466.493 489.983 460.771L495.709 393.319L496.144 393.344L572.594 397.684L568.123 554.771C568.09 556.03 567.641 557.223 566.872 558.098C566.103 558.973 565.074 559.46 564.005 559.455Z" fill="#2F2E41"/>
<path d="M535.606 236.448C548.027 236.448 558.095 224.587 558.095 209.955C558.095 195.323 548.027 183.462 535.606 183.462C523.186 183.462 513.117 195.323 513.117 209.955C513.117 224.587 523.186 236.448 535.606 236.448Z" fill="#A0616A"/>
<path d="M570.881 404.949C570.807 404.949 570.733 404.947 570.658 404.941L494.434 400.114C493.804 400.074 493.191 399.865 492.641 399.502C492.09 399.139 491.618 398.632 491.261 398.02C490.903 397.408 490.67 396.707 490.578 395.972C490.487 395.237 490.54 394.487 490.733 393.78L496.766 371.712C503.225 348.051 504.328 322.814 499.968 298.497C498.825 292.134 498.849 285.557 500.037 279.206C501.225 272.854 503.551 266.875 506.858 261.667C510.111 256.531 514.258 252.273 519.02 249.176C523.782 246.08 529.051 244.217 534.474 243.711H534.474C534.847 243.677 535.222 243.646 535.598 243.619C541.335 243.219 547.076 244.333 552.401 246.88C557.726 249.426 562.501 253.341 566.379 258.338C570.256 263.336 573.138 269.289 574.814 275.766C576.489 282.242 576.917 289.077 576.065 295.772L570.75 337.81L574.987 399.705C575.033 400.373 574.96 401.045 574.775 401.678C574.589 402.312 574.294 402.893 573.909 403.386C573.523 403.878 573.055 404.272 572.534 404.541C572.013 404.81 571.45 404.949 570.881 404.949V404.949Z" fill="#CCCCCC"/>
<path d="M477.085 410.536C478.2 409.647 479.136 408.481 479.826 407.12C480.517 405.759 480.946 404.236 481.083 402.658C481.22 401.081 481.062 399.487 480.62 397.99C480.177 396.492 479.462 395.127 478.523 393.99L493.199 359.54L476.314 361.895L464.966 394.249C463.449 396.233 462.604 398.803 462.589 401.473C462.574 404.143 463.391 406.726 464.884 408.734C466.378 410.741 468.446 412.034 470.694 412.366C472.943 412.698 475.217 412.047 477.085 410.536H477.085Z" fill="#A0616A"/>
<path d="M577.839 416.15C576.866 415.054 576.109 413.72 575.621 412.242C575.134 410.764 574.927 409.179 575.015 407.596C575.104 406.014 575.486 404.474 576.135 403.084C576.783 401.695 577.683 400.49 578.769 399.554L569.186 362.699L585.5 368.345L592.099 402.478C593.313 404.733 593.782 407.433 593.418 410.069C593.054 412.704 591.882 415.09 590.124 416.775C588.367 418.46 586.145 419.328 583.881 419.212C581.617 419.097 579.467 418.008 577.839 416.15V416.15Z" fill="#A0616A"/>
<path d="M576.253 396.843C575.254 396.847 574.287 396.421 573.536 395.644C572.785 394.867 572.3 393.794 572.174 392.626L564.548 324.862L552.383 271.908C551.869 269.67 551.794 267.323 552.162 265.045C552.531 262.768 553.334 260.618 554.511 258.76C555.688 256.901 557.208 255.382 558.957 254.317C560.705 253.252 562.636 252.669 564.604 252.612V252.612C567.722 252.535 570.76 253.775 573.168 256.11C575.576 258.444 577.194 261.717 577.729 265.336L595.854 390.4C595.952 391.079 595.926 391.775 595.779 392.442C595.631 393.109 595.364 393.731 594.996 394.267C594.628 394.803 594.168 395.241 593.645 395.551C593.123 395.861 592.55 396.036 591.966 396.066L576.432 396.839C576.372 396.841 576.313 396.843 576.253 396.843Z" fill="#CCCCCC"/>
<path d="M485.256 389.233C484.962 389.232 484.668 389.196 484.38 389.123L469.174 385.303C468.602 385.16 468.062 384.874 467.591 384.465C467.12 384.057 466.728 383.535 466.441 382.934C466.155 382.333 465.98 381.667 465.929 380.98C465.878 380.294 465.951 379.602 466.145 378.952L501.756 259.215C502.801 255.755 504.861 252.849 507.565 251.022C510.269 249.195 513.439 248.568 516.502 249.253V249.253C518.434 249.697 520.255 250.652 521.827 252.046C523.4 253.441 524.684 255.238 525.58 257.302C526.477 259.366 526.964 261.643 527.005 263.961C527.045 266.28 526.638 268.578 525.813 270.684L506.286 320.564L489.176 385.809C488.921 386.799 488.402 387.667 487.696 388.283C486.99 388.9 486.135 389.232 485.256 389.233V389.233Z" fill="#CCCCCC"/>
<path d="M511.741 194.983C516.881 199.155 522.98 201.376 529.222 201.347C526.995 203.165 524.461 204.393 521.793 204.947C530.091 207.044 538.668 207.101 546.986 205.114C548.835 204.765 550.619 204.043 552.26 202.98C553.077 202.442 553.79 201.707 554.351 200.824C554.912 199.94 555.308 198.927 555.515 197.851C556.068 194.132 553.607 190.752 551.05 188.474C547.135 185.041 542.622 182.675 537.835 181.548C533.049 180.421 528.11 180.562 523.375 181.96C520.284 182.901 517.187 184.492 515.179 187.416C513.171 190.341 512.576 194.85 514.489 197.861L511.741 194.983Z" fill="#2F2E41"/>
<path d="M394.389 2.12894e-09H7.98468C5.8676 0.00214216 3.83776 0.993797 2.34075 2.75726C0.843728 4.52073 0.00187948 6.9119 7.62939e-06 9.40584V453.077C0.00189159 455.571 0.843731 457.962 2.34075 459.725C3.83776 461.489 5.86761 462.481 7.98468 462.483H41.8638V459.797H7.98468C6.47229 459.795 5.02234 459.086 3.95291 457.826C2.88349 456.567 2.28192 454.858 2.28016 453.077V9.40584C2.28192 7.62422 2.88349 5.91616 3.95291 4.65636C5.02234 3.39656 6.47229 2.68792 7.98468 2.68585H394.389C395.903 2.68571 397.355 3.39331 398.426 4.65327C399.498 5.91322 400.101 7.62253 400.103 9.40584V453.077C400.104 454.389 399.776 455.672 399.16 456.766C398.612 457.728 397.87 458.514 396.999 459.053C396.192 459.544 395.297 459.799 394.389 459.797H360.51V462.483H394.389C395.544 462.483 396.684 462.188 397.732 461.618C398.78 461.048 399.711 460.217 400.46 459.182C400.524 459.101 400.582 459.015 400.634 458.923C401.111 458.237 401.496 457.47 401.778 456.647C402.18 455.517 402.386 454.303 402.383 453.077V9.40584C402.38 6.91025 401.537 4.51784 400.038 2.7542C398.54 0.990563 396.508 -5.3027e-05 394.389 2.12894e-09Z" fill="#1D138A"/>
<path d="M401.237 37.7022H1.1375V40.3911H401.237V37.7022Z" fill="#3F3D56"/>
<path d="M20.5391 28.2374C24.321 28.2374 27.3868 24.6258 27.3868 20.1707C27.3868 15.7156 24.321 12.1041 20.5391 12.1041C16.7573 12.1041 13.6915 15.7156 13.6915 20.1707C13.6915 24.6258 16.7573 28.2374 20.5391 28.2374Z" fill="#3F3D56"/>
<path d="M40.2261 28.2374C44.0079 28.2374 47.0737 24.6258 47.0737 20.1707C47.0737 15.7156 44.0079 12.1041 40.2261 12.1041C36.4442 12.1041 33.3784 15.7156 33.3784 20.1707C33.3784 24.6258 36.4442 28.2374 40.2261 28.2374Z" fill="#3F3D56"/>
<path d="M59.913 28.2374C63.6949 28.2374 66.7607 24.6258 66.7607 20.1707C66.7607 15.7156 63.6949 12.1041 59.913 12.1041C56.1312 12.1041 53.0654 15.7156 53.0654 20.1707C53.0654 24.6258 56.1312 28.2374 59.913 28.2374Z" fill="#3F3D56"/>
<path d="M297.792 99.9433H104.59C101.433 99.9433 98.4051 98.466 96.1727 95.8362C93.9404 93.2065 92.6863 89.6399 92.6863 85.9209C92.6863 82.2019 93.9404 78.6352 96.1727 76.0055C98.4051 73.3758 101.433 71.8984 104.59 71.8984H297.792C300.949 71.8984 303.977 73.3758 306.209 76.0055C308.441 78.6352 309.695 82.2019 309.695 85.9209C309.695 89.6399 308.441 93.2065 306.209 95.8362C303.977 98.466 300.949 99.9433 297.792 99.9433V99.9433ZM104.59 74.0557C101.918 74.0557 99.3565 75.3058 97.4677 77.5309C95.5788 79.7561 94.5176 82.774 94.5176 85.9209C94.5176 89.0677 95.5788 92.0856 97.4677 94.3108C99.3565 96.5359 101.918 97.786 104.59 97.786H297.792C300.463 97.786 303.025 96.5359 304.914 94.3108C306.803 92.0856 307.864 89.0677 307.864 85.9209C307.864 82.774 306.803 79.7561 304.914 77.5309C303.025 75.3058 300.463 74.0557 297.792 74.0557H104.59Z" fill="#3F3D56"/>
<path d="M346.779 295.82H55.6023C51.4754 295.815 47.5188 293.881 44.6006 290.443C41.6824 287.006 40.0409 282.345 40.0363 277.483V167.461C40.0409 162.599 41.6824 157.938 44.6006 154.5C47.5188 151.063 51.4754 149.129 55.6023 149.124H346.779C350.906 149.129 354.863 151.063 357.781 154.5C360.699 157.938 362.341 162.599 362.345 167.461V277.483C362.341 282.345 360.699 287.006 357.781 290.443C354.863 293.881 350.906 295.815 346.779 295.82V295.82ZM55.6023 151.281C51.9609 151.286 48.4698 152.992 45.8949 156.025C43.3201 159.058 41.8717 163.171 41.8676 167.461V277.483C41.8717 281.773 43.3201 285.885 45.8949 288.919C48.4698 291.952 51.9609 293.658 55.6023 293.663H346.779C350.421 293.658 353.912 291.952 356.487 288.919C359.061 285.885 360.51 281.773 360.514 277.483V167.461C360.51 163.171 359.061 159.058 356.487 156.025C353.912 152.992 350.421 151.286 346.779 151.281H55.6023Z" fill="#2B1AF0"/>
<path d="M239.374 216.539H137.737C135.794 216.539 133.931 215.63 132.557 214.012C131.184 212.394 130.412 210.199 130.412 207.91C130.412 205.622 131.184 203.427 132.557 201.808C133.931 200.19 135.794 199.281 137.737 199.281H239.374C241.317 199.281 243.18 200.19 244.554 201.808C245.928 203.427 246.699 205.622 246.699 207.91C246.699 210.199 245.928 212.394 244.554 214.012C243.18 215.63 241.317 216.539 239.374 216.539Z" fill="#4ADEDE"/>
<path d="M333.686 245.663H137.737C135.794 245.663 133.931 244.754 132.557 243.135C131.184 241.517 130.412 239.322 130.412 237.034C130.412 234.745 131.184 232.55 132.557 230.932C133.931 229.314 135.794 228.404 137.737 228.404H333.686C335.629 228.404 337.492 229.314 338.866 230.932C340.24 232.55 341.012 234.745 341.012 237.034C341.012 239.322 340.24 241.517 338.866 243.135C337.492 244.754 335.629 245.663 333.686 245.663Z" fill="#4ADEDE"/>
<path d="M88.8398 254.831C104.011 254.831 116.309 240.344 116.309 222.472C116.309 204.6 104.011 190.112 88.8398 190.112C73.6688 190.112 61.3702 204.6 61.3702 222.472C61.3702 240.344 73.6688 254.831 88.8398 254.831Z" fill="#4ADEDE"/>
<path d="M333.675 280.719H308.037C306.094 280.719 304.231 279.81 302.858 278.192C301.484 276.573 300.712 274.379 300.712 272.09C300.712 269.801 301.484 267.606 302.858 265.988C304.231 264.37 306.094 263.461 308.037 263.461H333.675C335.618 263.461 337.481 264.37 338.855 265.988C340.229 267.606 341.001 269.801 341.001 272.09C341.001 274.379 340.229 276.573 338.855 278.192C337.481 279.81 335.618 280.719 333.675 280.719Z" fill="white"/>
<path d="M333.675 280.719H308.037C306.094 280.719 304.231 279.81 302.858 278.192C301.484 276.573 300.712 274.379 300.712 272.09C300.712 269.801 301.484 267.606 302.858 265.988C304.231 264.37 306.094 263.461 308.037 263.461H333.675C335.618 263.461 337.481 264.37 338.855 265.988C340.229 267.606 341.001 269.801 341.001 272.09C341.001 274.379 340.229 276.573 338.855 278.192C337.481 279.81 335.618 280.719 333.675 280.719Z" fill="#CCCCCC"/>
<path d="M346.775 347.596H55.5985C51.4719 347.602 47.516 349.537 44.5981 352.974C41.6802 356.411 40.0383 361.071 40.0325 365.933V475.955C40.0383 480.816 41.6802 485.476 44.5981 488.914C47.516 492.351 51.4719 494.285 55.5985 494.292H346.775C350.902 494.287 354.859 492.354 357.778 488.916C360.696 485.478 362.337 480.817 362.341 475.955V365.933C362.337 361.071 360.696 356.41 357.778 352.972C354.859 349.534 350.902 347.601 346.775 347.596ZM360.51 475.955C360.507 480.245 359.059 484.359 356.484 487.392C353.909 490.426 350.417 492.131 346.775 492.135H55.5985C51.9572 492.13 48.4663 490.423 45.8915 487.39C43.3167 484.357 41.8682 480.245 41.8638 475.955V365.933C41.8682 361.643 43.3167 357.531 45.8915 354.498C48.4663 351.464 51.9572 349.758 55.5985 349.753H346.775C350.417 349.756 353.909 351.462 356.484 354.496C359.059 357.529 360.507 361.643 360.51 365.933V475.955Z" fill="#3F3D56"/>
<path d="M239.374 415.011H137.737C135.794 415.011 133.931 414.102 132.557 412.484C131.184 410.866 130.412 408.671 130.412 406.382C130.412 404.093 131.184 401.899 132.557 400.28C133.931 398.662 135.794 397.753 137.737 397.753H239.374C241.317 397.753 243.18 398.662 244.554 400.28C245.928 401.899 246.699 404.093 246.699 406.382C246.699 408.671 245.928 410.866 244.554 412.484C243.18 414.102 241.317 415.011 239.374 415.011Z" fill="#4ADEDE"/>
<path d="M333.686 444.135H137.737C135.794 444.135 133.931 443.226 132.557 441.607C131.184 439.989 130.412 437.794 130.412 435.506C130.412 433.217 131.184 431.022 132.557 429.404C133.931 427.786 135.794 426.876 137.737 426.876H333.686C335.629 426.876 337.492 427.786 338.866 429.404C340.24 431.022 341.012 433.217 341.012 435.506C341.012 437.794 340.24 439.989 338.866 441.607C337.492 443.226 335.629 444.135 333.686 444.135Z" fill="#4ADEDE"/>
<path d="M88.8398 453.303C104.011 453.303 116.309 438.816 116.309 420.944C116.309 403.072 104.011 388.584 88.8398 388.584C73.6688 388.584 61.3702 403.072 61.3702 420.944C61.3702 438.816 73.6688 453.303 88.8398 453.303Z" fill="#4ADEDE"/>
<path d="M333.675 479.191H308.037C306.094 479.191 304.231 478.282 302.858 476.664C301.484 475.045 300.712 472.85 300.712 470.562C300.712 468.273 301.484 466.078 302.858 464.46C304.231 462.842 306.094 461.933 308.037 461.933H333.675C335.618 461.933 337.481 462.842 338.855 464.46C340.229 466.078 341.001 468.273 341.001 470.562C341.001 472.85 340.229 475.045 338.855 476.664C337.481 478.282 335.618 479.191 333.675 479.191Z" fill="#CCCCCC"/>
<path d="M599.084 600H470.893C470.65 600 470.418 599.886 470.246 599.684C470.074 599.482 469.978 599.207 469.978 598.921C469.978 598.635 470.074 598.361 470.246 598.159C470.418 597.956 470.65 597.843 470.893 597.843H599.084C599.327 597.843 599.56 597.956 599.732 598.159C599.904 598.361 600 598.635 600 598.921C600 599.207 599.904 599.482 599.732 599.684C599.56 599.886 599.327 600 599.084 600Z" fill="#3F3D56"/>
</g>
<defs>
<clipPath id="clip0">
<rect width="600" height="600" fill="white"/>
</clipPath>
</defs>
</svg>
